<svg width="197" height="73" viewBox="0 0 197 73" fill="none" xmlns="http://www.w3.org/2000/svg">
<path fill-rule="evenodd" clip-rule="evenodd" d="M26.1379 53.2527H25.4686L23.7436 54.4652L23.9746 54.9715C24.078 54.9372 24.3958 54.8 24.6274 54.6882C24.8589 54.5764 25.1254 54.4049 25.211 54.3528V58.169H24.2156V58.9338H26.936V58.169H26.1379V53.2527ZM35.4429 23.1908H36.3113V18.8227H35.4429V23.1908ZM31.1121 23.1926H33.9276V18.8162H31.1121V23.1926ZM28.7272 23.1908H29.5956V18.8227H28.7272V23.1908ZM40.0756 26.3676H24.9641V24.8463H27.2527V17.3683H37.7858V24.8463H40.0756V26.3676ZM26.9987 43.1118H38.041V40.4702H26.9987V43.1118ZM30.9023 57.5332C30.9023 57.267 30.8084 57.06 30.6188 56.9145C30.4043 56.743 30.07 56.5703 29.5117 56.3384C29.0911 56.562 28.7904 56.9056 28.7904 57.4042C28.7904 58.0052 29.2199 58.3926 29.8898 58.3926C30.49 58.3926 30.9023 58.0401 30.9023 57.5332ZM28.902 54.5935C28.902 55.0927 29.4946 55.3755 29.8975 55.5393C30.2756 55.35 30.7222 55.0496 30.7222 54.5764C30.7222 54.1209 30.3878 53.8459 29.8124 53.8459C29.2624 53.8459 28.902 54.1464 28.902 54.5935ZM31.9409 57.3699C31.9409 58.4784 30.7818 59.0976 29.7952 59.0976C28.8075 59.0976 27.769 58.6079 27.769 57.4728C27.769 56.7773 28.2327 56.2183 28.8678 55.9947C28.3444 55.78 27.9491 55.2554 27.9491 54.6799C27.9491 53.5886 28.9623 53.1586 29.8974 53.1586C30.9791 53.1586 31.7264 53.7347 31.7264 54.5764C31.7264 55.2808 31.177 55.6765 30.5845 55.9001C31.4175 56.2438 31.9409 56.656 31.9409 57.3699ZM1.95069 32.8697C1.95069 32.8697 1.95541 34.2402 2.40793 36.5197C2.46051 36.502 2.51308 36.4849 2.56566 36.4671C5.82426 35.3522 11.7058 33.4429 15.6006 33.4429C19.4955 33.4429 20.9257 34.4774 24.6616 34.4774C25.0923 34.4774 25.5082 34.4868 25.9158 34.501V27.6618H39.1239V34.7252C41.7693 34.6454 43.74 34.7228 46.1225 35.154C49.4213 35.7502 51.4482 37.8991 53.7923 38.2575C56.1376 38.6159 58.2035 38.0984 60.7077 38.2179C61.3528 38.2486 61.8224 38.2705 62.2401 38.29C63.0878 34.9653 63.089 32.8697 63.089 32.8697V2.41277H33.2796V3.28106C33.9418 3.56556 34.4085 4.19785 34.4085 4.94252C34.4085 5.68601 33.9418 6.31771 33.2796 6.60162V7.65681C34.2744 8.02116 36.0697 8.893 36.8908 10.6633C37.66 12.3218 37.8 13.7567 37.8077 14.5434H38.5154V16.0647H26.5249V14.5434H27.232C27.2397 13.7567 27.3803 12.3218 28.1489 10.6633C28.9682 8.89596 30.7641 8.02116 31.7601 7.65563V6.60103C31.0985 6.31712 30.6312 5.68601 30.6312 4.94252C30.6312 4.19785 31.0985 3.56675 31.7601 3.28224V2.41277H1.95069V32.8697ZM31.6934 4.94311C31.6934 5.37548 32.0632 5.72564 32.5204 5.72564C32.9765 5.72564 33.3469 5.37548 33.3469 4.94311C33.3469 4.50838 32.9765 4.15704 32.5204 4.15704C32.0632 4.15704 31.6934 4.50838 31.6934 4.94311ZM56.3526 51.024L41.3097 41.5053V43.5619L55.3412 52.4406C55.6939 51.9656 56.0312 51.493 56.3526 51.024ZM54.0322 54.1073L41.3103 46.1283V46.1585H23.7601L11.0418 54.1357C15.5729 59.6838 22.3565 65.4684 32.5252 70.344C42.718 65.459 49.507 59.6631 54.0322 54.1073ZM25.6966 44.4154H39.3436V39.166H25.6966V44.4154ZM31.1121 33.8883H33.9276V29.0103H31.1121V33.8883ZM23.4589 37.3218H41.5814V36.0182H23.4589V37.3218ZM9.67241 52.3631L23.7288 43.4885V41.4332L8.66281 50.9447C8.98418 51.4143 9.32032 51.8869 9.67241 52.3631ZM0 0.494019H65.0391V33.4169C65.0391 33.4748 64.9759 39.3819 60.9174 47.1285C57.1927 54.2351 49.2494 64.3801 32.5387 72.494C15.8411 64.3837 7.88775 54.2369 4.15182 47.1297C0.0797518 39.3819 0.000590754 33.473 0 33.4174V0.494019ZM35.6243 56.1148C35.6243 55.5559 35.5805 55.1696 35.4949 54.8C35.3318 54.1298 35.04 53.8719 34.6625 53.8719C34.3276 53.8719 34.07 54.1387 33.9069 54.5935C33.7699 54.9632 33.7096 55.453 33.7096 56.0634C33.7096 56.6395 33.7528 57.0866 33.8295 57.4042C33.9843 58.0744 34.2933 58.3583 34.6537 58.3583C35.0146 58.3583 35.3058 58.0489 35.4606 57.5497C35.5723 57.1807 35.6243 56.6909 35.6243 56.1148ZM36.6711 56.0977C36.6711 57.8768 35.847 59.0633 34.6454 59.0633C33.1342 59.0633 32.6539 57.3007 32.6539 56.0716C32.6539 54.3788 33.5123 53.1586 34.6536 53.1586C36.1902 53.1586 36.6711 54.8514 36.6711 56.0977ZM6.95319 19.4799H9.27485C9.10294 18.6636 8.99543 17.7882 8.96057 16.8685H6.24665C6.32522 17.7965 6.57274 18.6749 6.95319 19.4799ZM6.24665 15.5649H8.96057C8.99542 14.6451 9.10294 13.7697 9.27426 12.9541H6.9526C6.57215 13.7585 6.32522 14.6368 6.24665 15.5649ZM7.73708 11.6505H9.61864C9.91992 10.713 10.3104 9.88846 10.7736 9.21654C9.56251 9.7542 8.52042 10.5988 7.73708 11.6505ZM10.9845 11.6505H13.2104V8.72207C12.3627 9.07932 11.5457 10.118 10.9845 11.6505ZM13.2104 12.9541H10.6005C10.4185 13.7413 10.2998 14.6167 10.262 15.5649H13.2104V12.9541ZM13.2104 16.8685H10.262C10.2998 17.8172 10.4185 18.692 10.6005 19.4799H13.2104V16.8685ZM13.2104 20.7835H10.9845C11.5457 22.316 12.3627 23.354 13.2104 23.7113V20.7835ZM10.7741 23.2162C10.3104 22.5449 9.91992 21.721 9.61864 20.7835H7.73708C8.52101 21.8345 9.5631 22.6786 10.7741 23.2162ZM14.5125 23.7107C15.3602 23.3529 16.176 22.3148 16.7378 20.7835H14.5125V23.7107ZM14.5125 19.4799H17.1224C17.3044 18.692 17.4231 17.8172 17.4609 16.8685H14.5125V19.4799ZM14.5125 15.5649H17.4609C17.4231 14.6167 17.3044 13.7413 17.1224 12.9541H14.5125V15.5649ZM14.5125 11.6505H16.7384C16.1766 10.1185 15.3602 9.07991 14.5125 8.72266V11.6505ZM16.9475 9.21595C17.4119 9.88787 17.803 10.7124 18.1042 11.6505H19.9864C19.2025 10.5988 18.1598 9.7536 16.9475 9.21595ZM18.448 12.9541C18.6194 13.7697 18.7269 14.6451 18.7623 15.5649H21.4763C21.3977 14.6368 21.1507 13.7585 20.7703 12.9541H18.448ZM21.4763 16.8685H18.7623C18.7269 17.7882 18.6194 18.6636 18.448 19.4799H20.7697C21.1507 18.6749 21.3977 17.7965 21.4763 16.8685ZM19.9858 20.7835H18.1042C17.8024 21.721 17.4119 22.5455 16.9475 23.2174C18.1592 22.6798 19.2019 21.8351 19.9858 20.7835ZM4.91093 16.2167C4.91093 11.2749 8.92629 7.2552 13.862 7.2552C18.7966 7.2552 22.8114 11.2749 22.8114 16.2167C22.8114 21.1579 18.7966 25.1782 13.862 25.1782C8.92629 25.1782 4.91093 21.1579 4.91093 16.2167ZM40.43 56.1148C40.43 55.5559 40.3875 55.1696 40.3013 54.8C40.1382 54.1298 39.8464 53.8719 39.4689 53.8719C39.1339 53.8719 38.877 54.1387 38.7133 54.5935C38.5763 54.9632 38.516 55.453 38.516 56.0634C38.516 56.6395 38.5585 57.0866 38.6365 57.4042C38.7907 58.0744 39.0997 58.3583 39.4606 58.3583C39.821 58.3583 40.1128 58.0489 40.267 57.5497C40.3792 57.1807 40.43 56.6909 40.43 56.1148ZM41.4774 56.0977C41.4774 57.8768 40.6539 59.0633 39.4517 59.0633C37.9412 59.0633 37.4603 57.3007 37.4603 56.0716C37.4603 54.3788 38.3187 53.1586 39.4606 53.1586C40.9977 53.1586 41.4774 54.8514 41.4774 56.0977ZM56.5222 18.7033C56.5222 18.7033 56.5742 9.90798 56.5222 9.96476C56.5222 9.96476 53.0125 10.021 51.4358 12.8961V21.6352C53.0125 18.7594 56.5222 18.7033 56.5222 18.7033ZM50.142 21.5601V12.821C48.5818 9.94583 45.1088 9.88905 45.1088 9.88905C45.0586 9.83286 45.1088 18.6281 45.1088 18.6281C45.1088 18.6281 48.5818 18.6843 50.142 21.5601ZM50.8444 25.0782L42.493 20.1778V10.7165H43.7956V19.4308L50.8444 23.567L57.888 19.4308V10.7165H59.1906V20.1778L50.8444 25.0782Z" fill="#FEFEFE"/>
<path fill-rule="evenodd" clip-rule="evenodd" d="M179.539 32.8864C179.536 32.8606 179.531 32.8353 179.53 32.8095L179.534 32.5314C179.542 32.41 179.555 32.2885 179.569 32.1677L179.659 31.3733C179.703 30.9861 179.747 30.5989 179.791 30.2117L175.609 30.64V31.378L177.51 31.6878L177.771 33.5211V38.4263L177.51 40.2362L175.847 40.5453V41.2834H181.952V40.5453L180.052 40.2362L179.791 38.4263V37.856V36.3078V34.5895V34.1172V33.9224C179.791 33.8919 179.793 33.8596 179.795 33.8262C180.484 32.9732 181.407 32.6646 182.118 32.6646C182.618 32.6646 183.116 32.8312 183.52 33.0219L184.114 30.6165C183.615 30.474 183.378 30.4499 182.95 30.4499C181.6 30.4499 180.535 31.2073 179.539 32.8864ZM192.594 30.6306V31.3698L194.092 31.6561L193.569 33.5153L191.57 39.0223L189.431 33.5153L188.859 31.6561L190.382 31.3698V30.6306H185.172V31.3698L186.243 31.6561L187.218 33.5153L190.548 41.6688L189.525 44.0765L188.503 45.7456L186.124 46.1269V46.9377L189.573 47.2468L194.759 33.5153L195.662 31.6561L196.875 31.3698V30.6306H192.594ZM172.363 38.4263V33.5153L172.624 30.2018L168.224 30.6306V31.3698L170.079 31.6802L170.317 33.5153V38.736C169.651 39.5468 168.724 40.1663 167.701 40.1663C166.202 40.1663 165.441 39.1655 165.441 37.5205V33.5153L165.68 30.2018L161.279 30.6306V31.3698L163.134 31.6802L163.396 33.5153V38.069C163.396 40.4532 164.68 41.7879 166.773 41.7879C168.461 41.7879 169.46 41.1203 170.579 39.5709L170.317 41.7163L174.336 41.2875V40.5483L172.624 40.2385L172.363 38.4263ZM158.543 35.876C158.543 33.4202 157.497 31.7512 155.904 31.7512C154.929 31.7512 154.001 32.1565 153.144 33.158V38.4263L153.382 40.5007C153.954 40.6914 154.357 40.7864 154.976 40.7864C157.426 40.7864 158.543 38.5935 158.543 35.876ZM160.637 35.1128C160.637 38.8082 158.425 41.7879 154.143 41.7879C153.144 41.7879 152.455 41.7879 151.098 41.2875V27.5559L150.861 25.7196L148.959 25.4104V24.6712L153.382 24.2418L153.144 27.5559V32.0375C154.024 30.8694 155.309 30.1302 156.76 30.1302C159.043 30.1302 160.637 32.085 160.637 35.1128ZM141.933 34.1835H145.025L146.641 33.9447C146.641 32.0615 145.762 31.0841 144.453 31.0841C143.122 31.0841 142.195 32.085 141.933 34.1835ZM141.909 35.1368C141.909 35.1368 141.885 35.4701 141.885 35.6613C141.885 38.3547 143.193 40.262 145.714 40.262C146.476 40.262 147.332 40.0713 148.164 39.4512L148.64 40.0954C147.284 41.335 146.262 41.7879 144.549 41.7879C141.718 41.7879 139.84 39.7381 139.84 36.0661C139.84 32.4428 141.672 30.1302 144.644 30.1302C147.141 30.1302 148.878 31.7512 148.782 35.1368H141.909ZM137.084 38.4263V27.5559L137.323 24.2418L132.898 24.6712V25.4104L134.801 25.7196L135.063 27.5559V38.4263L134.801 40.2385L133.136 40.5483V41.2875H138.987V40.5483L137.346 40.2385L137.084 38.4263ZM127.806 31.608C127.14 31.3223 126.616 31.1797 125.879 31.1797C123.643 31.1797 122.406 33.0389 122.406 35.9711C122.406 38.5694 123.358 40.1429 125.213 40.1429C126.046 40.1429 126.926 39.7615 127.806 38.6651V31.608ZM130.089 40.2385L131.635 40.5483V41.2875L127.806 41.7879L128.162 39.5233C127.068 41.0012 125.95 41.7879 124.381 41.7879C121.978 41.7879 120.265 39.714 120.265 36.4721C120.265 32.7526 122.597 30.1302 125.974 30.1302C126.64 30.1302 127.164 30.2018 127.806 30.3449V27.5559L127.544 25.7196L125.641 25.4104V24.6712L130.089 24.2418L129.827 27.5559V38.4263L130.089 40.2385ZM115.578 31.608C114.912 31.3223 114.389 31.1797 113.651 31.1797C111.415 31.1797 110.179 33.0389 110.179 35.9711C110.179 38.5694 111.13 40.1429 112.986 40.1429C113.818 40.1429 114.698 39.7615 115.578 38.6651V31.608ZM117.861 40.2385L119.407 40.5483V41.2875L115.578 41.7879L115.935 39.5233C114.841 41.0012 113.723 41.7879 112.153 41.7879C109.751 41.7879 108.038 39.714 108.038 36.4721C108.038 32.7526 110.37 30.1302 113.747 30.1302C114.412 30.1302 114.936 30.2018 115.578 30.3449V27.5559L115.316 25.7196L113.414 25.4104V24.6712L117.861 24.2418L117.599 27.5559V38.4263L117.861 40.2385ZM103.984 27.4122C104.864 27.4122 105.483 26.697 105.483 25.9343C105.483 25.0766 104.793 24.4084 103.984 24.4084C103.152 24.4084 102.486 25.1001 102.486 25.9109C102.486 26.8161 103.175 27.4122 103.984 27.4122ZM105.197 38.4263V33.5153L105.435 30.2018L101.011 30.6306V31.3698L102.914 31.6802L103.152 33.5153V38.4263L102.914 40.2385L101.249 40.5483V41.2875H107.099V40.5483L105.435 40.2385L105.197 38.4263ZM93.1686 29.1769L89.483 38.5694L85.8916 29.2003L84.6782 25.6961H79.541V26.4113L81.4678 26.7926L81.7055 29.2003V37.7586L81.4678 40.1663L79.541 40.5483V41.2875H84.9399V40.5483L83.037 40.1663L82.7754 37.7586V27.3171L86.8907 37.7586L88.1748 41.2875H89.7206L90.9334 37.7586L95.0246 27.3171V37.7586L94.7624 40.1663L92.8602 40.5483V41.2875H99.4243V40.5483L97.5215 40.1663L97.2599 37.7586V29.2003L97.5215 26.7926L99.4243 26.4113V25.6961H94.2871L93.1686 29.1769Z" fill="white"/>
</svg>
