<svg width="66" height="72" viewBox="0 0 66 72" fill="none" xmlns="http://www.w3.org/2000/svg">
<path fill-rule="evenodd" clip-rule="evenodd" d="M0.966553 1.01245V24.4835V35.0585L2.21655 40.8025L9.16155 53.3255L16.5216 60.6625L25.5556 67.5365L32.0916 71.0785L37.8066 68.6485L44.4056 64.0644L50.3536 59.1345L54.6456 55.3845L57.6196 50.7325L61.2716 44.5185L62.7696 40.8875L64.5746 33.6875V1.01245H0.966553Z" fill="white"/>
<mask id="mask0" mask-type="alpha" maskUnits="userSpaceOnUse" x="0" y="0" width="66" height="72">
<path fill-rule="evenodd" clip-rule="evenodd" d="M0.000488281 0.000488281H65.2671V71.9995H0.000488281V0.000488281Z" fill="white"/>
</mask>
<g mask="url(#mask0)">
<path fill-rule="evenodd" clip-rule="evenodd" d="M1.62649 1.62649V32.9815C1.62649 33.0345 1.70249 38.6615 5.58449 46.0395C9.14749 52.8085 16.7305 62.4715 32.6515 70.1945C48.5845 62.4685 56.1595 52.8065 59.7095 46.0385C63.5805 38.6615 63.6405 33.0365 63.6405 32.9805V1.62649H1.62649ZM32.6515 71.9995L32.2995 71.8315C15.6825 63.8605 7.79049 53.7665 4.09449 46.7005C0.0624881 38.9895 0.000488281 33.2255 0.000488281 32.9835V0.000488281H65.2675V32.9815C65.2675 33.2235 65.2225 38.9855 61.2005 46.6965C57.5175 53.7625 49.6345 63.8565 33.0025 71.8315L32.6515 71.9995Z" fill="#0D395F"/>
</g>
<path fill-rule="evenodd" clip-rule="evenodd" d="M20.8917 12.2579C20.1577 11.2739 19.1807 10.4829 18.0447 9.97992C18.4797 10.6089 18.8467 11.3809 19.1287 12.2579H20.8917Z" fill="#0D395F"/>
<path fill-rule="evenodd" clip-rule="evenodd" d="M15.7637 9.51862V12.2576H17.8487C17.3227 10.8246 16.5577 9.85262 15.7637 9.51862Z" fill="#0D395F"/>
<path fill-rule="evenodd" clip-rule="evenodd" d="M11.7817 15.9205H14.5437V13.4775H12.0987C11.9277 14.2145 11.8167 15.0335 11.7817 15.9205Z" fill="#0D395F"/>
<path fill-rule="evenodd" clip-rule="evenodd" d="M12.4585 12.2579H14.5435V9.51788C13.7495 9.85188 12.9845 10.8239 12.4585 12.2579Z" fill="#0D395F"/>
<path fill-rule="evenodd" clip-rule="evenodd" d="M12.0985 19.584H14.5435V17.14H11.7815C11.8165 18.028 11.9285 18.847 12.0985 19.584Z" fill="#0D395F"/>
<path fill-rule="evenodd" clip-rule="evenodd" d="M14.544 23.543V20.804H12.459C12.985 22.237 13.75 23.209 14.544 23.543Z" fill="#0D395F"/>
<path fill-rule="evenodd" clip-rule="evenodd" d="M10.5625 17.1402H8.02051C8.09351 18.0092 8.32551 18.8302 8.68151 19.5842H10.8565C10.6955 18.8202 10.5955 18.0012 10.5625 17.1402Z" fill="#0D395F"/>
<path fill-rule="evenodd" clip-rule="evenodd" d="M18.2084 13.4776H15.7634V15.9206H18.5254C18.4904 15.0336 18.3784 14.2146 18.2084 13.4776Z" fill="#0D395F"/>
<path fill-rule="evenodd" clip-rule="evenodd" d="M10.8565 13.4776H8.68151C8.32451 14.2306 8.09351 15.0526 8.02051 15.9206H10.5625C10.5955 15.0606 10.6955 14.2416 10.8565 13.4776Z" fill="#0D395F"/>
<path fill-rule="evenodd" clip-rule="evenodd" d="M9.4165 20.8038C10.1505 21.7868 11.1265 22.5768 12.2615 23.0798C11.8275 22.4518 11.4615 21.6808 11.1785 20.8038H9.4165Z" fill="#0D395F"/>
<path fill-rule="evenodd" clip-rule="evenodd" d="M19.7452 15.9205H22.2872C22.2142 15.0525 21.9832 14.2315 21.6262 13.4775H19.4512C19.6112 14.2415 19.7122 15.0605 19.7452 15.9205Z" fill="#0D395F"/>
<path fill-rule="evenodd" clip-rule="evenodd" d="M12.2613 9.98102C11.1263 10.484 10.1503 11.274 9.41626 12.258H11.1783C11.4613 11.38 11.8273 10.609 12.2613 9.98102Z" fill="#0D395F"/>
<path fill-rule="evenodd" clip-rule="evenodd" d="M19.4507 19.584H21.6257C21.9827 18.831 22.2137 18.009 22.2877 17.14H19.7447C19.7127 18.001 19.6117 18.82 19.4507 19.584Z" fill="#0D395F"/>
<path fill-rule="evenodd" clip-rule="evenodd" d="M57.6196 20.2369L49.8016 24.8219L41.9766 20.2369V11.3839H43.1966V19.5379L49.8016 23.4079L56.3996 19.5379V11.3839H57.6196V20.2369ZM44.4276 10.6109C44.4276 10.6109 47.6816 10.6629 49.1426 13.3539V21.5299C47.6816 18.8399 44.4276 18.7869 44.4276 18.7869C44.4276 18.7869 44.3806 10.5569 44.4276 10.6109ZM50.3546 13.4239C51.8316 10.7339 55.1196 10.6809 55.1196 10.6809C55.1686 10.6279 55.1196 18.8569 55.1196 18.8569C55.1196 18.8569 51.8316 18.9099 50.3546 21.6009V13.4239ZM39.7116 26.0289H25.5556V24.6059H27.6996V17.6089H37.5666V24.6059H39.7116V26.0289ZM15.1546 24.9159C10.5306 24.9159 6.76861 21.1539 6.76861 16.5299C6.76861 11.9069 10.5306 8.14587 15.1546 8.14587C19.7776 8.14587 23.5386 11.9069 23.5386 16.5299C23.5386 21.1539 19.7776 24.9159 15.1546 24.9159ZM33.3456 3.61487V4.42687C33.9656 4.69287 34.4036 5.28487 34.4036 5.98187C34.4036 6.67687 33.9656 7.26887 33.3456 7.53387V8.52187C34.2776 8.86187 35.9596 9.67787 36.7286 11.3339C37.4486 12.8859 37.5806 14.2289 37.5876 14.9649H38.2506V16.3879H27.0166V14.9649H27.6806C27.6866 14.2289 27.8186 12.8859 28.5386 11.3339C29.3066 9.68087 30.9886 8.86187 31.9216 8.51987V7.53287C31.3026 7.26787 30.8646 6.67687 30.8646 5.98187C30.8646 5.28487 31.3026 4.69387 31.9216 4.42787V3.61487H3.99561V32.1129C3.99561 32.1129 3.99961 33.3949 4.42361 35.5279C4.47261 35.5109 4.52261 35.4959 4.57161 35.4789C7.62461 34.4359 13.1346 32.6489 16.7836 32.6489C20.4316 32.6489 21.7716 33.6169 25.2716 33.6169C25.6756 33.6169 26.0646 33.6259 26.4466 33.6389V27.2399H38.8206V33.8489C41.2986 33.7739 43.1456 33.8459 45.3766 34.2499C48.4676 34.8079 50.3666 36.8189 52.5626 37.1539C54.7596 37.4889 56.6956 37.0059 59.0406 37.1169C59.6456 37.1459 60.0856 37.1659 60.4766 37.1839C61.2706 34.0739 61.2726 32.1129 61.2726 32.1129V3.61487H33.3456Z" fill="#0D395F"/>
<path fill-rule="evenodd" clip-rule="evenodd" d="M18.5259 17.1402H15.7639V19.5842H18.2089C18.3789 18.8472 18.4899 18.0282 18.5259 17.1402Z" fill="#0D395F"/>
<path fill-rule="evenodd" clip-rule="evenodd" d="M15.7637 23.543C16.5577 23.208 17.3227 22.237 17.8487 20.804H15.7637V23.543Z" fill="#0D395F"/>
<path fill-rule="evenodd" clip-rule="evenodd" d="M18.0449 23.0811C19.1799 22.5781 20.1569 21.7881 20.8909 20.8041H19.1279C18.8459 21.6811 18.4799 22.4531 18.0449 23.0811Z" fill="#0D395F"/>
<mask id="mask1" mask-type="alpha" maskUnits="userSpaceOnUse" x="0" y="0" width="66" height="72">
<path fill-rule="evenodd" clip-rule="evenodd" d="M0 72H65.267V0H0V72Z" fill="white"/>
</mask>
<g mask="url(#mask1)">
<path fill-rule="evenodd" clip-rule="evenodd" d="M31.3149 33.066H33.9529V28.502H31.3149V33.066Z" fill="#0D395F"/>
<path fill-rule="evenodd" clip-rule="evenodd" d="M30.8524 54.6109C30.6514 54.4509 30.3384 54.2899 29.8154 54.0719C29.4214 54.2819 29.1394 54.6029 29.1394 55.0689C29.1394 55.6319 29.5414 55.9939 30.1694 55.9939C30.7324 55.9939 31.1184 55.6649 31.1184 55.1899C31.1184 54.9409 31.0304 54.7479 30.8524 54.6109Z" fill="#0D395F"/>
<path fill-rule="evenodd" clip-rule="evenodd" d="M30.1771 53.3248C30.5311 53.1468 30.9491 52.8658 30.9491 52.4238C30.9491 51.9978 30.6361 51.7398 30.0971 51.7398C29.5821 51.7398 29.2441 52.0208 29.2441 52.4398C29.2441 52.9068 29.7991 53.1718 30.1771 53.3248Z" fill="#0D395F"/>
<path fill-rule="evenodd" clip-rule="evenodd" d="M34.641 51.7642C34.327 51.7642 34.086 52.0142 33.933 52.4402C33.805 52.7852 33.748 53.2432 33.748 53.8152C33.748 54.3542 33.788 54.7722 33.861 55.0692C34.006 55.6972 34.295 55.9622 34.633 55.9622C34.971 55.9622 35.244 55.6722 35.389 55.2052C35.493 54.8602 35.542 54.4022 35.542 53.8632C35.542 53.3402 35.501 52.9792 35.421 52.6322C35.268 52.0052 34.995 51.7642 34.641 51.7642Z" fill="#0D395F"/>
<path fill-rule="evenodd" clip-rule="evenodd" d="M39.1275 56.6216C37.7125 56.6216 37.2615 54.9736 37.2615 53.8226C37.2615 52.2386 38.0665 51.0976 39.1365 51.0976C40.5755 51.0976 41.0255 52.6816 41.0255 53.8476C41.0255 55.5116 40.2545 56.6216 39.1275 56.6216ZM34.6255 56.6216C33.2095 56.6216 32.7595 54.9736 32.7595 53.8226C32.7595 52.2386 33.5635 51.0976 34.6325 51.0976C36.0725 51.0976 36.5225 52.6816 36.5225 53.8476C36.5225 55.5116 35.7505 56.6216 34.6255 56.6216ZM30.0815 56.6536C29.1565 56.6536 28.1835 56.1956 28.1835 55.1336C28.1835 54.4826 28.6175 53.9596 29.2115 53.7506C28.7225 53.5506 28.3525 53.0586 28.3525 52.5196C28.3525 51.4996 29.3015 51.0976 30.1775 51.0976C31.1905 51.0976 31.8905 51.6356 31.8905 52.4236C31.8905 53.0826 31.3755 53.4526 30.8204 53.6616C31.6005 53.9836 32.0914 54.3696 32.0914 55.0366C32.0914 56.0746 31.0055 56.6536 30.0815 56.6536ZM27.4025 56.5006H24.8535V55.7856H25.7865V52.2146C25.7065 52.2636 25.4565 52.4236 25.2395 52.5276C25.0235 52.6326 24.7255 52.7616 24.6275 52.7936L24.4115 52.3186L26.0275 51.1846H26.6555V55.7856H27.4025V56.5006ZM40.8695 44.5176V44.5466H24.4275L12.5125 52.0116C16.7565 57.2016 23.1125 62.6146 32.6385 67.1776C42.1875 62.6056 48.5475 57.1836 52.7875 51.9846L40.8695 44.5176Z" fill="#0D395F"/>
<path fill-rule="evenodd" clip-rule="evenodd" d="M39.144 51.7642C38.83 51.7642 38.589 52.0142 38.436 52.4402C38.308 52.7852 38.251 53.2432 38.251 53.8152C38.251 54.3542 38.291 54.7722 38.364 55.0692C38.508 55.6972 38.798 55.9622 39.136 55.9622C39.474 55.9622 39.747 55.6722 39.892 55.2052C39.997 54.8602 40.044 54.4022 40.044 53.8632C40.044 53.3402 40.004 52.9792 39.924 52.6322C39.771 52.0052 39.498 51.7642 39.144 51.7642Z" fill="#0D395F"/>
<path fill-rule="evenodd" clip-rule="evenodd" d="M24.145 36.278H41.123V35.058H24.145V36.278Z" fill="#0D395F"/>
<path fill-rule="evenodd" clip-rule="evenodd" d="M27.461 41.696H37.806V39.224H27.461V41.696ZM26.241 42.916H39.026V38.005H26.241V42.916Z" fill="#0D395F"/>
<path fill-rule="evenodd" clip-rule="evenodd" d="M31.3149 23.058H33.9529V18.963H31.3149V23.058Z" fill="#0D395F"/>
<path fill-rule="evenodd" clip-rule="evenodd" d="M29.082 23.056H29.895V18.969H29.082V23.056Z" fill="#0D395F"/>
<path fill-rule="evenodd" clip-rule="evenodd" d="M35.373 23.056H36.186V18.969H35.373V23.056Z" fill="#0D395F"/>
<path fill-rule="evenodd" clip-rule="evenodd" d="M33.4081 5.98195C33.4081 6.38595 33.0611 6.71395 32.6341 6.71395C32.2061 6.71395 31.8591 6.38595 31.8591 5.98195C31.8591 5.57595 32.2061 5.24695 32.6341 5.24695C33.0611 5.24695 33.4081 5.57595 33.4081 5.98195Z" fill="#0D395F"/>
<path fill-rule="evenodd" clip-rule="evenodd" d="M24.3984 40.1255L10.2834 49.0255C10.5844 49.4645 10.8994 49.9065 11.2294 50.3525L24.3984 42.0485V40.1255Z" fill="#0D395F"/>
<path fill-rule="evenodd" clip-rule="evenodd" d="M40.8682 42.1168L54.0142 50.4258C54.3442 49.9808 54.6602 49.5388 54.9612 49.0998L40.8682 40.1928V42.1168Z" fill="#0D395F"/>
</g>
</svg>
