<svg width="140" height="71" viewBox="0 0 140 71" fill="none" xmlns="http://www.w3.org/2000/svg">
<path d="M121.355 62.2304C121.355 64.8675 120.554 66.3179 119.067 66.3179C117.579 66.3179 116.746 64.8675 116.746 62.2304C116.746 59.5933 117.579 58.143 119.067 58.143C120.554 58.143 121.355 59.5933 121.355 62.2304ZM123.463 62.2304C123.463 58.522 121.698 56.4453 119.067 56.4453C116.419 56.4453 114.654 58.522 114.654 62.2304C114.654 65.9388 116.419 68.0155 119.067 68.0155C121.698 68.0155 123.463 65.9388 123.463 62.2304ZM112.892 67.8013L112.63 66.0542H108.021L110.686 63.3677C112.042 62.0162 112.696 61.0767 112.696 59.6263C112.696 57.6815 111.356 56.4618 109.133 56.4618C107.678 56.4618 106.534 56.9727 105.668 57.6485L105.929 59.5274C106.828 58.8022 107.825 58.2913 108.904 58.2913C109.999 58.2913 110.62 58.8187 110.62 59.8406C110.62 60.6482 110.195 61.2745 109.345 62.181L105.39 66.252V67.8013H112.892ZM101.729 62.2304C101.729 64.8675 100.928 66.3179 99.4409 66.3179C97.9536 66.3179 97.1201 64.8675 97.1201 62.2304C97.1201 59.5933 97.9536 58.143 99.4409 58.143C100.928 58.143 101.729 59.5933 101.729 62.2304ZM103.837 62.2304C103.837 58.522 102.072 56.4453 99.4409 56.4453C96.7932 56.4453 95.0281 58.522 95.0281 62.2304C95.0281 65.9388 96.7932 68.0155 99.4409 68.0155C102.072 68.0155 103.837 65.9388 103.837 62.2304ZM93.2662 67.8013L93.0047 66.0542H88.3957L91.0598 63.3677C92.4163 62.0162 93.0701 61.0767 93.0701 59.6263C93.0701 57.6815 91.7299 56.4618 89.5071 56.4618C88.0525 56.4618 86.9085 56.9727 86.0422 57.6485L86.3037 59.5274C87.2026 58.8022 88.1996 58.2913 89.2783 58.2913C90.3734 58.2913 90.9944 58.8187 90.9944 59.8406C90.9944 60.6482 90.5695 61.2745 89.7196 62.181L85.7644 66.252V67.8013H93.2662ZM79.7008 65.3949H77.4617L76.7099 69.845L77.8376 70.1252L79.7008 65.3949ZM71.676 63.8951H68.2765L71.676 58.7857V63.8951ZM75.288 65.4279V63.8951H73.6372V56.6431H71.251L66.3479 64.0269V65.4279H71.676V67.8013H73.6372V65.4279H75.288ZM64.9162 67.8013L64.6546 66.0542H60.0457L62.7097 63.3677C64.0663 62.0162 64.72 61.0767 64.72 59.6263C64.72 57.6815 63.3798 56.4618 61.1571 56.4618C59.7025 56.4618 58.5584 56.9727 57.6922 57.6485L57.9537 59.5274C58.8526 58.8022 59.8496 58.2913 60.9282 58.2913C62.0233 58.2913 62.6444 58.8187 62.6444 59.8406C62.6444 60.6482 62.2194 61.2745 61.3695 62.181L57.4143 66.252V67.8013H64.9162ZM51.7267 56.4289H49.3731L46.6274 61.4393L43.7999 56.3135L41.5444 56.6761L45.4833 63.4666V67.8013H47.657V63.4501L51.7267 56.4289ZM36.468 58.7363L37.988 63.1369H34.9154L36.468 58.7363ZM31.1726 67.8013H33.3463L34.327 64.917H38.5927L39.6714 67.9166L41.8452 67.5211L37.7102 56.3794H35.4057L31.1726 67.8013ZM29.3421 67.8013L28.4759 56.4289H25.7791L22.9353 65.0158L20.0751 56.4289H17.3294L16.4631 67.8013H18.4081L18.9801 59.412L21.8239 67.8342H23.7525L26.58 59.412L27.1847 67.8013H29.3421Z" fill="#5DA7E5"/>
<path d="M124.667 45.7834H131.176V44.2387H129.173V38.4163C129.173 36.249 131.058 34.0792 133.003 34.0792C133.681 34.0792 134.271 34.2574 134.68 34.7017C135.239 35.2674 135.446 36.218 135.446 37.4657V44.2387H133.415V45.7834H139.926V44.2387H137.718V36.4273C137.718 33.6943 136.363 32.209 134.125 32.209C132.416 32.209 130.679 33.1286 129.117 35.8616V32.4157H124.667V33.9604H126.875V44.2387H124.667V45.7834ZM117.303 44.7424C115.095 44.7424 113.266 42.9885 113.266 39.1267C113.266 35.2649 114.887 33.4825 117.067 33.4825C119.275 33.4825 121.074 35.2055 121.074 39.0982C121.074 42.96 119.483 44.7424 117.303 44.7424ZM117.185 46.0495C120.807 46.0495 123.576 43.1693 123.576 39.0078C123.576 34.9084 120.956 32.1754 117.185 32.1754C113.561 32.1754 110.792 35.0556 110.792 39.2171C110.794 43.3165 113.415 46.0495 117.185 46.0495ZM102.797 45.7834H110.072V44.2387H107.569V32.4157H102.797V33.9604H105.3V44.2387H102.797V45.7834ZM106.273 29.3856C107.187 29.3856 107.894 28.7011 107.894 27.6911C107.894 26.6811 107.187 25.9991 106.273 25.9991C105.271 25.9991 104.595 26.7431 104.595 27.7221C104.593 28.7605 105.3 29.3856 106.273 29.3856ZM94.495 28.9388V32.5035H91.8157V33.9578H94.495V42.4253C94.495 44.683 95.6144 46.0495 97.8532 46.0495C99.5925 46.0495 100.976 45.0989 101.713 42.4847L100.653 42.0689C100.095 43.673 99.4465 44.4453 98.4449 44.4453C97.2948 44.4453 96.7953 43.7014 96.7953 42.3659V33.9578H101.124V32.5035H96.7953V28.6417L94.495 28.9388ZM84.1567 44.4169C82.6249 44.4169 81.859 43.5852 81.859 42.0999C81.859 40.3175 82.9502 39.6924 85.9549 39.2197C86.6619 39.1008 87.1332 39.0104 87.3996 38.9226V41.5677C87.397 43.1099 85.7167 44.4169 84.1567 44.4169ZM83.1551 45.9901C84.9533 45.9901 86.69 44.9801 87.5738 43.4638H87.6634C87.6942 45.2177 88.6957 45.9281 89.9022 45.9281C91.2265 45.9281 91.9642 45.2151 92.6405 43.7014L91.7568 43.1977C91.4314 43.97 91.0805 44.3859 90.5785 44.3859C89.9893 44.3859 89.6947 44.1173 89.6947 43.1977V36.2155C89.6947 33.5135 88.0758 32.2064 85.0404 32.2064C82.2996 32.2064 79.8251 33.5729 79.8251 35.5025C79.8251 36.4247 80.445 37.1066 81.3877 37.1066C82.3303 37.1066 82.9195 36.4531 82.9195 35.5929C82.9195 34.9678 82.6249 34.4925 82.1228 34.2264C82.7427 33.7201 83.6264 33.4541 84.6562 33.4541C86.4236 33.4541 87.397 34.167 87.397 36.1276V37.4347C87.397 37.941 87.1025 38.0004 85.3043 38.2975C82.712 38.7134 81.298 39.0982 80.2657 40.1393C79.6458 40.7928 79.3512 41.653 79.3512 42.5157C79.3538 44.5952 80.7396 45.9901 83.1551 45.9901ZM67.5144 45.7834H74.6124V44.2387H72.0201V37.0188C72.4044 35.6239 73.5827 33.7511 75.0556 33.901C74.9659 34.0792 74.9377 34.2859 74.9377 34.4641C74.9377 35.4147 75.6447 36.0088 76.5284 36.0088C77.4429 36.0088 78.1191 35.2365 78.1191 34.2859C78.1191 33.157 77.3251 32.2374 75.97 32.2374C74.4382 32.2374 72.8193 33.3068 71.9638 35.5645V32.4157H67.517V33.9604H69.725V44.2387H67.517V45.7834H67.5144ZM54.4198 45.9307H55.6289L56.4819 42.991C57.3374 44.8328 58.9256 46.0211 60.9005 46.0211C62.2274 46.0211 63.4339 45.4864 64.3176 44.5952C65.5856 43.3165 66.29 41.2371 66.29 38.9794C66.29 36.5719 65.7008 34.7017 64.4354 33.4541C63.6413 32.6507 62.6398 32.1754 61.1951 32.1754C59.3994 32.1754 57.7191 33.2759 56.6868 35.2933V25.374H52.2092V26.9782H54.4173V45.9307H54.4198ZM60.4292 44.4763C58.4542 44.4763 56.6279 42.7224 56.6279 39.4263C56.6279 36.0992 58.3364 33.7227 60.4881 33.7227C62.4912 33.7227 63.7874 35.6549 63.7874 39.0414C63.7874 42.5157 62.4323 44.4763 60.4292 44.4763ZM46.1384 33.4541C48.1697 33.4541 49.202 35.146 49.4069 37.9384H42.4856C42.7802 34.9704 44.1942 33.4541 46.1384 33.4541ZM51.7661 39.2171C51.8557 35.6833 50.1472 32.1754 46.2869 32.1754C42.752 32.1754 39.983 35.177 39.983 39.2455C39.983 43.2261 42.3396 46.0495 46.1973 46.0495C48.9381 46.0495 50.9105 44.6236 51.7072 41.8622H50.4699C49.6759 43.8538 48.3182 44.4763 46.6994 44.4763C44.1967 44.4763 42.5164 42.694 42.4575 39.2197H51.7661V39.2171ZM31.9244 45.7834H39.1992V44.2387H36.7247V25.374H31.9244V26.9782H34.427V44.2387H31.9244V45.7834ZM25.3003 33.4541C27.3316 33.4541 28.3639 35.146 28.5688 37.9384H21.6475C21.9421 34.9704 23.3561 33.4541 25.3003 33.4541ZM30.928 39.2171C31.0151 35.6833 29.3065 32.1754 25.4489 32.1754C21.9139 32.1754 19.1449 35.177 19.1449 39.2455C19.1449 43.2261 21.5015 46.0495 25.3592 46.0495C28.0975 46.0495 30.0724 44.6236 30.8665 41.8622H29.6293C28.8352 43.8538 27.4802 44.4763 25.8587 44.4763C23.3561 44.4763 21.6757 42.694 21.6168 39.2197H30.928V39.2171ZM8.89621 46.2561C13.4327 46.2561 16.5552 43.3449 17.1136 38.2071H15.464C14.9338 41.9216 12.7539 44.5642 9.30606 44.5642C5.41765 44.5642 2.82537 41.4747 2.82537 35.89C2.82537 30.4835 5.38691 27.5723 8.98074 27.5723C12.0751 27.5723 13.9885 29.7421 15.1976 33.3663H16.5526V26.0276H15.0208L14.4624 28.2852C13.2841 26.9187 11.4577 25.9371 8.95257 25.9371C3.9755 25.9371 0 30.3647 0 36.0682C0 42.0094 3.59383 46.2561 8.89621 46.2561Z" fill="#0D395F"/>
<path d="M98.6393 19.9521H105.737V18.4074H103.145V11.1875C103.527 9.79262 104.708 7.91984 106.18 8.06966C106.091 8.2479 106.063 8.45455 106.063 8.63279C106.063 9.58338 106.77 10.1775 107.653 10.1775C108.568 10.1775 109.244 9.40515 109.244 8.45455C109.244 7.32572 108.447 6.40612 107.095 6.40612C105.563 6.40612 103.942 7.47554 103.089 9.7332V6.58436H98.6418V8.12907H100.85V18.4074H98.6418V19.9521H98.6393ZM91.2748 18.9111C89.0668 18.9111 87.2379 17.1571 87.2379 13.2954C87.2379 9.43356 88.8593 7.65119 91.0366 7.65119C93.2447 7.65119 95.0429 9.37415 95.0429 13.2669C95.0454 17.1287 93.4547 18.9111 91.2748 18.9111ZM91.157 20.2182C94.779 20.2182 97.548 17.338 97.548 13.1765C97.548 9.07709 94.925 6.34413 91.157 6.34413C87.5324 6.34413 84.7634 9.22433 84.7634 13.3858C84.7634 17.4852 87.3864 20.2182 91.157 20.2182ZM76.7663 19.9521H84.0411V18.4074H81.5384V6.58436H76.7663V8.12907H79.2715V18.4074H76.7663V19.9521ZM80.2423 3.55433C81.1568 3.55433 81.8638 2.87239 81.8638 1.86238C81.8638 0.85237 81.1568 0.170422 80.2423 0.170422C79.2407 0.170422 78.5645 0.914366 78.5645 1.89338C78.5645 2.92921 79.2715 3.55433 80.2423 3.55433ZM60.0471 19.9521H66.556V18.4074H64.5529V12.5824C64.5529 10.4152 66.4382 8.24532 68.3824 8.24532C69.0612 8.24532 69.6503 8.42355 70.0602 8.86785C70.6212 9.43098 70.8261 10.3842 70.8261 11.6318V18.4048H68.7948V19.9495H75.3037V18.4048H73.0956V10.5934C73.0956 7.86043 71.7406 6.37512 69.5018 6.37512C67.7932 6.37512 66.0565 7.29472 64.494 10.0277V6.58436H60.0446V8.12907H62.2526V18.4074H60.0446V19.9521H60.0471ZM53.2104 7.62278C55.2417 7.62278 56.274 9.31474 56.4789 12.1071H49.5577C49.8522 9.13908 51.2662 7.62278 53.2104 7.62278ZM58.8355 13.3858C58.9252 9.85203 57.2166 6.34413 53.3564 6.34413C49.8215 6.34413 47.0525 9.34573 47.0525 13.4142C47.0525 17.3948 49.4091 20.2182 53.2693 20.2182C56.0076 20.2182 57.9825 18.7923 58.7766 16.0309H57.5394C56.7453 18.0225 55.3903 18.645 53.7688 18.645C51.2662 18.645 49.5858 16.8627 49.5269 13.3883H58.8355V13.3858ZM31.0659 20.337H32.5081L33.1561 18.0199C34.5701 19.5336 36.4861 20.4248 38.8709 20.4248C42.4648 20.4248 45.057 17.9011 45.057 14.5146C45.057 10.7122 42.0216 9.85203 38.6942 8.98926C35.9533 8.24532 33.6275 7.65119 33.6275 4.91823C33.6275 2.74839 35.1285 1.53174 37.0753 1.53174C39.3141 1.53174 41.3454 2.8388 42.849 6.61277H44.1759V0.227251H42.7337L42.1446 2.27568C41.0226 0.968612 39.1373 0.136841 37.2239 0.136841C33.63 0.136841 31.3323 2.60374 31.3323 5.66218C31.3323 9.46456 34.4241 10.4746 37.5184 11.3063C40.582 12.1381 42.7619 12.8201 42.7619 15.4342C42.7619 17.7513 41.1994 18.9989 38.9324 18.9989C36.1045 18.9989 34.2473 17.4232 32.3928 13.5924H31.0685V20.337H31.0659Z" fill="#0D395F"/>
</svg>
