<svg width="30" height="33" viewBox="0 0 30 33" fill="none" xmlns="http://www.w3.org/2000/svg">
<path fill-rule="evenodd" clip-rule="evenodd" d="M1.42188 0.580933V11.0125V15.7125L1.97743 18.2654L5.0641 23.8312L8.33521 27.092L12.3503 30.1472L15.2552 31.7214L17.7952 30.6414L20.7281 28.604L23.3717 26.4129L25.2792 24.7463L26.601 22.6787L28.2241 19.9169L28.8899 18.3032L29.6921 15.1032V0.580933H1.42188Z" fill="white"/>
<mask id="mask0" mask-type="alpha" maskUnits="userSpaceOnUse" x="0" y="0" width="30" height="33">
<path fill-rule="evenodd" clip-rule="evenodd" d="M0.992676 0.13147H30.0001V32.131H0.992676V0.13147Z" fill="white"/>
</mask>
<g mask="url(#mask0)">
<path fill-rule="evenodd" clip-rule="evenodd" d="M1.71521 0.853882V14.7894C1.71521 14.813 1.74899 17.3139 3.47432 20.593C5.05788 23.6014 8.4281 27.8961 15.5041 31.3286C22.5854 27.8948 25.9521 23.6005 27.5299 20.5926C29.2503 17.3139 29.277 14.8139 29.277 14.789V0.853882H1.71521ZM15.5042 32.131L15.3478 32.0564C7.96245 28.5137 4.4549 24.0275 2.81223 20.887C1.02023 17.4599 0.992676 14.8981 0.992676 14.7906V0.13147H30.0002V14.7897C30.0002 14.8972 29.9802 17.4581 28.1927 20.8852C26.5558 24.0257 23.0522 28.5119 15.6602 32.0564L15.5042 32.131Z" fill="#0D395F"/>
</g>
<path fill-rule="evenodd" clip-rule="evenodd" d="M10.2775 5.57897C9.95132 5.14164 9.5171 4.79008 9.01221 4.56653C9.20554 4.84608 9.36865 5.1892 9.49398 5.57897H10.2775Z" fill="#0D395F"/>
<path fill-rule="evenodd" clip-rule="evenodd" d="M7.99854 4.36145V5.57878H8.9252C8.69142 4.94189 8.35142 4.50989 7.99854 4.36145Z" fill="#0D395F"/>
<path fill-rule="evenodd" clip-rule="evenodd" d="M6.22852 7.20675H7.45607V6.12097H6.3694C6.2934 6.44853 6.24407 6.81253 6.22852 7.20675Z" fill="#0D395F"/>
<path fill-rule="evenodd" clip-rule="evenodd" d="M6.5293 5.57892H7.45596V4.36115C7.10307 4.50959 6.76307 4.94159 6.5293 5.57892Z" fill="#0D395F"/>
<path fill-rule="evenodd" clip-rule="evenodd" d="M6.3694 8.835H7.45607V7.74878H6.22852C6.24407 8.14345 6.29385 8.50745 6.3694 8.835Z" fill="#0D395F"/>
<path fill-rule="evenodd" clip-rule="evenodd" d="M7.45645 10.5945V9.3772H6.52979C6.76356 10.0141 7.10356 10.4461 7.45645 10.5945Z" fill="#0D395F"/>
<path fill-rule="evenodd" clip-rule="evenodd" d="M5.68691 7.74884H4.55713C4.58957 8.13506 4.69268 8.49995 4.85091 8.83506H5.81757C5.74602 8.49551 5.70157 8.13151 5.68691 7.74884Z" fill="#0D395F"/>
<path fill-rule="evenodd" clip-rule="evenodd" d="M9.0852 6.12103H7.99854V7.20681H9.22609C9.21054 6.81259 9.16076 6.44859 9.0852 6.12103Z" fill="#0D395F"/>
<path fill-rule="evenodd" clip-rule="evenodd" d="M5.81757 6.12103H4.85091C4.69224 6.4557 4.58957 6.82103 4.55713 7.20681H5.68691C5.70157 6.82459 5.74602 6.46059 5.81757 6.12103Z" fill="#0D395F"/>
<path fill-rule="evenodd" clip-rule="evenodd" d="M5.17725 9.37714C5.50347 9.81403 5.93725 10.1651 6.44169 10.3887C6.2488 10.1096 6.08613 9.76691 5.96036 9.37714H5.17725Z" fill="#0D395F"/>
<path fill-rule="evenodd" clip-rule="evenodd" d="M9.76787 7.20675H10.8977C10.8652 6.82097 10.7625 6.45608 10.6039 6.12097H9.63721C9.70832 6.46053 9.75321 6.82453 9.76787 7.20675Z" fill="#0D395F"/>
<path fill-rule="evenodd" clip-rule="evenodd" d="M6.44169 4.56702C5.93725 4.79057 5.50347 5.14168 5.17725 5.57902H5.96036C6.08613 5.18879 6.2488 4.84613 6.44169 4.56702Z" fill="#0D395F"/>
<path fill-rule="evenodd" clip-rule="evenodd" d="M9.63721 8.835H10.6039C10.7625 8.50033 10.8652 8.135 10.8981 7.74878H9.76787C9.75365 8.13145 9.70876 8.49545 9.63721 8.835Z" fill="#0D395F"/>
<path fill-rule="evenodd" clip-rule="evenodd" d="M26.6009 9.1252L23.1262 11.163L19.6484 9.1252V5.19053H20.1907V8.81453L23.1262 10.5345L26.0587 8.81453V5.19053H26.6009V9.1252ZM20.7378 4.84698C20.7378 4.84698 22.184 4.87009 22.8334 6.06609V9.69987C22.184 8.50431 20.7378 8.48076 20.7378 8.48076C20.7378 8.48076 20.7169 4.82298 20.7378 4.84698ZM23.3721 6.09717C24.0285 4.90162 25.4898 4.87806 25.4898 4.87806C25.5116 4.85451 25.4898 8.51184 25.4898 8.51184C25.4898 8.51184 24.0285 8.5354 23.3721 9.7314V6.09717ZM18.6418 11.6994H12.3502V11.067H13.3031V7.95721H17.6884V11.067H18.6418V11.6994ZM7.72736 11.2047C5.67224 11.2047 4.00024 9.53274 4.00024 7.47763C4.00024 5.42296 5.67224 3.7514 7.72736 3.7514C9.78202 3.7514 11.4536 5.42296 11.4536 7.47763C11.4536 9.53274 9.78202 11.2047 7.72736 11.2047ZM15.8125 1.73761V2.0985C16.0881 2.21672 16.2827 2.47983 16.2827 2.78961C16.2827 3.0985 16.0881 3.36161 15.8125 3.47939V3.9185C16.2267 4.06961 16.9743 4.43228 17.3161 5.16828C17.6361 5.85805 17.6947 6.45494 17.6978 6.78205H17.9925V7.4145H12.9996V6.78205H13.2947C13.2974 6.45494 13.3561 5.85805 13.6761 5.16828C14.0174 4.43361 14.765 4.06961 15.1796 3.91761V3.47894C14.9045 3.36117 14.7098 3.0985 14.7098 2.78961C14.7098 2.47983 14.9045 2.21717 15.1796 2.09894V1.73761H2.76807V14.4034C2.76807 14.4034 2.76984 14.9732 2.95829 15.9212C2.98007 15.9136 3.00229 15.9069 3.02407 15.8994C4.38096 15.4358 6.82984 14.6416 8.45162 14.6416C10.073 14.6416 10.6685 15.0718 12.2241 15.0718C12.4036 15.0718 12.5765 15.0758 12.7463 15.0816V12.2376H18.2458V15.1749C19.3472 15.1416 20.1681 15.1736 21.1596 15.3532C22.5334 15.6012 23.3774 16.4949 24.3534 16.6438C25.3298 16.7927 26.1903 16.5781 27.2325 16.6274C27.5014 16.6403 27.697 16.6492 27.8707 16.6572C28.2236 15.2749 28.2245 14.4034 28.2245 14.4034V1.73761H15.8125Z" fill="#0D395F"/>
<path fill-rule="evenodd" clip-rule="evenodd" d="M9.22609 7.74884H7.99854V8.83506H9.0852C9.16076 8.50751 9.21009 8.14351 9.22609 7.74884Z" fill="#0D395F"/>
<path fill-rule="evenodd" clip-rule="evenodd" d="M7.99854 10.5945C8.35142 10.4456 8.69142 10.0141 8.9252 9.3772H7.99854V10.5945Z" fill="#0D395F"/>
<path fill-rule="evenodd" clip-rule="evenodd" d="M9.01221 10.3893C9.51665 10.1657 9.95087 9.81459 10.2771 9.37726H9.49354C9.36821 9.76704 9.20554 10.1101 9.01221 10.3893Z" fill="#0D395F"/>
<mask id="mask1" mask-type="alpha" maskUnits="userSpaceOnUse" x="0" y="0" width="30" height="33">
<path fill-rule="evenodd" clip-rule="evenodd" d="M0.992188 32.131H29.9997V0.130981H0.992188V32.131Z" fill="white"/>
</mask>
<g mask="url(#mask1)">
<path fill-rule="evenodd" clip-rule="evenodd" d="M14.9097 14.827H16.0821V12.7985H14.9097V14.827Z" fill="#0D395F"/>
<path fill-rule="evenodd" clip-rule="evenodd" d="M14.7042 24.4025C14.6149 24.3313 14.4758 24.2598 14.2433 24.1629C14.0682 24.2562 13.9429 24.3989 13.9429 24.606C13.9429 24.8562 14.1215 25.0171 14.4006 25.0171C14.6509 25.0171 14.8224 24.8709 14.8224 24.6598C14.8224 24.5491 14.7833 24.4633 14.7042 24.4025Z" fill="#0D395F"/>
<path fill-rule="evenodd" clip-rule="evenodd" d="M14.4044 23.8309C14.5617 23.7518 14.7475 23.6269 14.7475 23.4305C14.7475 23.2411 14.6084 23.1265 14.3689 23.1265C14.14 23.1265 13.9897 23.2514 13.9897 23.4376C13.9897 23.6451 14.2364 23.7629 14.4044 23.8309Z" fill="#0D395F"/>
<path fill-rule="evenodd" clip-rule="evenodd" d="M16.3881 23.1373C16.2485 23.1373 16.1414 23.2484 16.0734 23.4377C16.0165 23.591 15.9912 23.7946 15.9912 24.0488C15.9912 24.2884 16.009 24.4742 16.0414 24.6062C16.1059 24.8853 16.2343 25.003 16.3845 25.003C16.5348 25.003 16.6561 24.8742 16.7205 24.6666C16.7668 24.5133 16.7885 24.3097 16.7885 24.0702C16.7885 23.8377 16.7703 23.6773 16.7348 23.523C16.6668 23.2444 16.5454 23.1373 16.3881 23.1373Z" fill="#0D395F"/>
<path fill-rule="evenodd" clip-rule="evenodd" d="M18.3821 25.2961C17.7532 25.2961 17.5527 24.5637 17.5527 24.0521C17.5527 23.3481 17.9105 22.841 18.3861 22.841C19.0256 22.841 19.2256 23.545 19.2256 24.0632C19.2256 24.8028 18.883 25.2961 18.3821 25.2961ZM16.3811 25.2961C15.7518 25.2961 15.5518 24.5637 15.5518 24.0521C15.5518 23.3481 15.9091 22.841 16.3842 22.841C17.0242 22.841 17.2242 23.545 17.2242 24.0632C17.2242 24.8028 16.8811 25.2961 16.3811 25.2961ZM14.3614 25.3104C13.9503 25.3104 13.5178 25.1068 13.5178 24.6348C13.5178 24.3455 13.7107 24.113 13.9747 24.0201C13.7574 23.9312 13.5929 23.7126 13.5929 23.473C13.5929 23.0197 14.0147 22.841 14.404 22.841C14.8543 22.841 15.1654 23.0801 15.1654 23.4304C15.1654 23.7232 14.9365 23.8877 14.6898 23.9806C15.0365 24.1237 15.2547 24.2952 15.2547 24.5917C15.2547 25.053 14.772 25.3104 14.3614 25.3104ZM13.1708 25.2423H12.0379V24.9246H12.4525V23.3375C12.417 23.3592 12.3059 23.4303 12.2094 23.4766C12.1134 23.5232 11.981 23.5806 11.9374 23.5948L11.8414 23.3837L12.5597 22.8797H12.8388V24.9246H13.1708V25.2423ZM19.1563 19.9166V19.9295H11.8488L6.55322 23.2472C8.43944 25.5539 11.2643 27.9597 15.4981 29.9877C19.7421 27.9557 22.5688 25.5459 24.4532 23.2352L19.1563 19.9166Z" fill="#0D395F"/>
<path fill-rule="evenodd" clip-rule="evenodd" d="M18.3896 23.1373C18.25 23.1373 18.1429 23.2484 18.0749 23.4377C18.018 23.591 17.9927 23.7946 17.9927 24.0488C17.9927 24.2884 18.0105 24.4742 18.0429 24.6062C18.1069 24.8853 18.2358 25.003 18.386 25.003C18.5362 25.003 18.6576 24.8742 18.722 24.6666C18.7687 24.5133 18.7896 24.3097 18.7896 24.0702C18.7896 23.8377 18.7718 23.6773 18.7362 23.523C18.6682 23.2444 18.5469 23.1373 18.3896 23.1373Z" fill="#0D395F"/>
<path fill-rule="evenodd" clip-rule="evenodd" d="M11.7231 16.2546H19.2689V15.7123H11.7231V16.2546Z" fill="#0D395F"/>
<path fill-rule="evenodd" clip-rule="evenodd" d="M13.1973 18.6626H17.795V17.5639H13.1973V18.6626ZM12.6548 19.2048H18.337V17.0221H12.6548V19.2048Z" fill="#0D395F"/>
<path fill-rule="evenodd" clip-rule="evenodd" d="M14.9097 10.379H16.0821V8.55902H14.9097V10.379Z" fill="#0D395F"/>
<path fill-rule="evenodd" clip-rule="evenodd" d="M13.9175 10.3781H14.2788V8.56165H13.9175V10.3781Z" fill="#0D395F"/>
<path fill-rule="evenodd" clip-rule="evenodd" d="M16.7134 10.3781H17.0747V8.56165H16.7134V10.3781Z" fill="#0D395F"/>
<path fill-rule="evenodd" clip-rule="evenodd" d="M15.8403 2.78962C15.8403 2.96917 15.6861 3.11495 15.4963 3.11495C15.3061 3.11495 15.1519 2.96917 15.1519 2.78962C15.1519 2.60917 15.3061 2.46295 15.4963 2.46295C15.6861 2.46295 15.8403 2.60917 15.8403 2.78962Z" fill="#0D395F"/>
<path fill-rule="evenodd" clip-rule="evenodd" d="M11.8358 17.9645L5.5625 21.9201C5.69628 22.1152 5.83628 22.3116 5.98294 22.5099L11.8358 18.8192V17.9645Z" fill="#0D395F"/>
<path fill-rule="evenodd" clip-rule="evenodd" d="M19.1558 18.8496L24.9984 22.5424C25.1451 22.3447 25.2855 22.1482 25.4193 21.9531L19.1558 17.9944V18.8496Z" fill="#0D395F"/>
</g>
</svg>
